<?xml version="1.0" encoding="utf-8"?>
<!-- Generator: Adobe Illustrator 26.3.1, SVG Export Plug-In . SVG Version: 6.00 Build 0)  -->
<svg version="1.1" id="girl_x5F_welcome" xmlns="http://www.w3.org/2000/svg" xmlns:xlink="http://www.w3.org/1999/xlink" x="0px"
	 y="0px" viewBox="0 0 533.9 545.3" style="enable-background:new 0 0 533.9 545.3;" xml:space="preserve">
<style type="text/css">
	.st0{fill:#3A3938;}
	.st1{fill:#282828;}
	.st2{fill:#565656;}
	.st3{opacity:0.19;fill:#3F3F3F;enable-background:new    ;}
	.st4{opacity:0.11;fill:#3F3F3F;enable-background:new    ;}
	.st5{fill:#F3F4E4;}
	.st6{fill:#161616;}
	.st7{opacity:0.13;fill:#3F3F3F;enable-background:new    ;}
	.st8{opacity:0.14;fill:#3F3F3F;enable-background:new    ;}
	.st9{fill:#FFFFFF;}
	.st10{font-family:'BrandonGrotesque-Regular';}
	.st11{font-size:343.0364px;}
	.st12{fill:#E8BEAC;}
	.st13{opacity:0.1;fill:#3F3F3F;enable-background:new    ;}
	.st14{opacity:0.13;fill:#565656;enable-background:new    ;}
	.st15{fill:#212121;}
	.st16{opacity:0.2;fill:#3F3F3F;enable-background:new    ;}
	.st17{fill:#38281D;}
</style>
<g id="girl_waving">
	<g id="legs">
		<path class="st0" d="M97.4,332.5c-1.1,4.1-0.6,6.9,0.6,14.1c1.4,8.9,2.3,17.9,3.9,26.8c1.4,7.5,3.5,18.8,6,33.5
			c14.7-2.2,30.9-5.2,48.2-9.4c16.5-4,31.7-8.4,45.2-12.9c-10.2-17.3-17.2-30-22.4-39.9c-2.7-5.3-6.8-13.2-15.4-21.7
			c-4.7-4.7-9.3-8-12.6-10.1c-0.8-0.4-19.2-8.6-36.7,0.4C113.4,313.7,100.7,320.5,97.4,332.5z"/>
		<g>
			<g>
				<path class="st1" d="M128.7,349.5c4,3.9,7.9,7.9,11.8,11.8c0.5,0.6,1.6-0.2,1.1-0.8c-4-3.9-7.9-7.9-11.8-11.8
					C129.2,348.1,128.1,348.9,128.7,349.5L128.7,349.5z"/>
			</g>
		</g>
		<g>
			<g>
				<path class="st2" d="M128.3,349.3c8.5,6,14.2,13.5,18.2,22.3c3.8,8.3,6.8,16.8,9.3,25.5c0.2,0.7,1.6,0.4,1.4-0.3
					c-2.6-8.9-5.8-17.7-9.6-26.2c-4-8.8-9.9-16.3-18.4-22.3C128.4,347.8,127.6,348.9,128.3,349.3L128.3,349.3z"/>
			</g>
		</g>
		<path class="st3" d="M131.7,308.9c2.1,2.4,5.2,5.8,8.7,10.1c10.2,12.4,20.7,25.5,28.4,42.6c3.1,6.9,6.8,17.1,8.7,30.4
			c3.8-0.9,7.8-2,12-3.2s8.1-2.5,11.9-3.8c-1.8-3.1-4.8-8.1-8.3-14.3c-9.6-17.3-11.6-22.9-19.1-34.1c-5.6-8.3-10.3-13.8-16.5-18.7
			c-5.6-4.4-10.5-6.9-16.4-8.2C137.3,309,134,308.9,131.7,308.9z"/>
		<path class="st4" d="M128.4,349.7c2.9,5.2,5.7,11.6,7.9,18.9c3.8,12.7,4.4,24.1,4,32.7c5.2-1.3,10.3-2.6,15.5-3.9
			c-2.3-8.6-4.9-15.6-7.1-21c-5.7-13.5-9.7-18.2-12.8-21.1C133.1,352.8,130.4,350.9,128.4,349.7z"/>
	</g>
	<g id="torso">
		<path class="st5" d="M55.5,217.2c-1.6,1.6-5.2,5.4-8.5,10.9c-3.5,5.7-5.1,10.8-6.5,15.1c-1.1,3.3-1.8,6.1-2.2,8.2
			c1.8,2.3,4.7,5.7,8.5,9.7c6.8,7.2,11.7,10.8,20.3,18.3c3.6,3.1,9,7.9,15.4,13.9c1.5,3.6,3,7.4,4.5,11.5c2.9,8.3,4.9,16.1,6.3,23.3
			c2.3,1.6,6,3.9,11.2,5c8.5,1.9,15.4-0.5,19-1.8c8-2.9,12.9-7.6,16.2-11c6.1-6,9.8-12.5,12.1-17.7c-2.2-7.7-4.6-15.6-7.4-23.8
			c-2.3-6.9-4.7-13.7-7.1-20.2c-1.1-5.2-3.1-12.3-6.4-20.3c-2.8-6.7-6.1-14.5-13.1-23.1c-8.7-10.7-18-16.5-21.6-18.5
			c-3.2-1.8-6-3.1-8-4c-6.4,6.1-12.2,10.3-16.1,12.9C64.7,210.6,61,211.8,55.5,217.2z"/>
		<g>
			<g>
				<path class="st6" d="M39.1,251.5c0.4-6.2,3.6-12.6,6.4-18.1c2.9-5.8,6.4-11.2,11-15.9c0.7-0.7-0.3-1.9-1-1.2
					c-4.7,4.8-8.3,10.4-11.3,16.4c-2.9,5.7-6.1,12.2-6.5,18.7C37.6,252.4,39.1,252.4,39.1,251.5L39.1,251.5z"/>
			</g>
		</g>
		<g>
			<g>
				<path class="st2" d="M38.1,252.2c13.9,16,29.5,30.6,46.4,43.3c0.8,0.6,1.6-0.7,0.8-1.3c-16.8-12.7-32.3-27.1-46.1-43.1
					C38.6,250.4,37.5,251.4,38.1,252.2L38.1,252.2z"/>
			</g>
		</g>
		<g>
			<g>
				<path class="st6" d="M73.2,206.2c4.8-5.1,10.4-9.3,16.6-12.5c0.9-0.4,0.2-1.8-0.7-1.4c-6.3,3.3-12,7.5-16.9,12.7
					C71.5,205.7,72.5,206.9,73.2,206.2L73.2,206.2z"/>
			</g>
		</g>
		<g>
			<g>
				<path class="st2" d="M88.6,194.4c27.3,12,43.4,39.3,47.8,67.8c0.1,1,1.6,0.7,1.5-0.3c-4.5-29.2-21-56.8-48.8-69
					C88.2,192.5,87.7,194,88.6,194.4L88.6,194.4z"/>
			</g>
		</g>
		<g>
			<g>
				<path class="st2" d="M80.7,293.2c3.7,4.9,5.3,11.5,7,17.2c1.8,5.8,3.1,11.7,4.3,17.7c0.2,1,1.7,0.7,1.5-0.3
					c-1.3-6.6-2.9-13.2-4.9-19.6c-1.7-5.5-3.3-11.4-6.8-16C81.3,291.4,80.1,292.4,80.7,293.2L80.7,293.2z"/>
			</g>
		</g>
		<g>
			<g>
				<path class="st2" d="M93.1,328.2c9.3,7.7,22.7,7.8,33.3,2.8c5.9-2.8,11.1-7,15.5-11.9c4.4-4.8,8.5-10.2,10.2-16.6
					c0.3-0.9-1.2-1.4-1.5-0.5c-1.7,6.1-5.6,11.3-9.8,16c-4.1,4.5-8.9,8.5-14.4,11.3c-10.3,5.2-23.4,5.3-32.6-2.3
					C93.2,326.3,92.3,327.6,93.1,328.2L93.1,328.2z"/>
			</g>
		</g>
		<g>
			<g>
				<path class="st2" d="M136.5,259.8c5.4,14.2,10.7,28.4,14.5,43.1c0.2,0.9,1.7,0.6,1.5-0.3c-3.9-14.8-9.2-29.2-14.6-43.5
					C137.5,258.2,136.2,258.9,136.5,259.8L136.5,259.8z"/>
			</g>
		</g>
		<path class="st7" d="M74.7,203.8c6.9,5.5,16.5,14.2,25.6,26.8c13.3,18.4,18.6,35.6,23,50.2c3.3,11.1,7.1,26.8,8.6,46.1
			c3.9-2.7,9.3-7.1,14-13.8c2.6-3.7,4.4-7.3,5.7-10.4c-4.4-13.7-8.8-27.4-13.3-41.1c-2-11.6-5.6-20.6-8.6-26.6
			c-9.1-18.5-21.8-29.1-25.9-32.4c-5.7-4.5-11.1-7.7-15-9.7C84,196.6,79.4,200.2,74.7,203.8z"/>
		<path class="st8" d="M115.5,214c-0.9,0.4,2.9,8.2,7.3,19.9c0,0,6.7,17.8,10.8,35.4c2.8,11.7,5.6,28.9,4.5,51.3
			c2.2-1.7,4.8-4,7.4-7.1c3.1-3.7,5.2-7.4,6.5-10.3c-4.6-20.1-8.4-30.2-11.2-35.9c-0.5-1.1-1.9-3.6-3.3-7.3
			c-2.6-6.9-2.6-10.1-4.4-15.9c-1.4-4.6-3-7.5-5.9-13C122.8,223,116.5,213.5,115.5,214z"/>
	</g>
	<g>
		<text transform="matrix(1 0 0 1 80.2553 462.632)" class="st9 st10 st11">A</text>
		<text transform="matrix(1 0 0 1 290.5318 540.2034)" class="st9 st10 st11">N</text>
	</g>
	<g id="hand_right">
		<path class="st12" d="M41.5,246.8c-1.4,1.4-2,3.7-3.2,8.3c-0.9,3.7-1.2,6.5-1.6,10.7c-1.1,11.9-1.1,9.9-1.4,14.4
			c-0.4,6-1.1,16.4-0.1,29.8c1,13,3.3,22.7,3.8,25.1c3.5,14.8,8.3,25.4,11.5,32.1c5.6,12.2,11.9,22,24.4,41.6
			c2.7,4.2,5,7.7,6.5,10.1c-0.7,0.2-1.9,0.6-3.3,1.1c-7.4,2.4-8.5,2.4-11.4,3.7c-3.7,1.6-7.1,3.2-7.9,6.4c-0.3,1.5-0.2,3.4,0.7,3.9
			c1.1,0.6,2.6-1.6,5.6-3.2c2.5-1.4,5-1.8,6.7-1.9c-0.8,2.8-1.1,5.3-1.2,7c-0.4,4-0.6,7.3,1.2,9.2c0.9,1,2.5,1.7,3.5,1.2
			c0.6-0.3,1-0.9,1.7-5.2s0.5-5.5,1.4-7.3c0.8-1.5,1.9-2.5,2.6-3c-0.2,1.3-0.2,3.3,0,5.6c0.2,1.4,0.3,2.7,0.8,4.2
			c0.5,1.4,1.6,4.4,4.2,5.7c0.5,0.2,2.4,1.1,3.2,0.3c0.8-0.7,0.2-2-0.3-6.6c-0.5-3.9-0.4-5-0.2-5.6c0.3-1.9,1.1-3.3,1.7-4.2
			c0.5,3.7,1.1,6.7,1.6,8.9c0.9,3.5,1.6,5.1,2.9,5.8c0.8,0.4,2,0.8,2.8,0.2s0.9-1.9,0.8-3.5c-0.1-6.1-1-7.7-0.4-10.9
			c0.3-1.3,0.5-2.8,1.7-4c2.4-2.7,6.8-2.2,7.3-2.2c2.6,0.3,3.7,1.4,4.8,0.6c0.9-0.6,1.2-2.2,1-3.4c-0.5-3-4.2-4.6-7.4-5.9
			c-1.6-0.7-3.9-1.5-7-2c-3.4-4.4-7.9-10.8-12.3-19.3c-2.9-5.7-4.6-10.1-6.2-14.4c-5.7-14.8-5.9-20.8-11.8-35.5
			c-1.4-3.5-2.7-6.3-3.4-7.9c-0.3-2.5-0.7-6.5-1.2-11.4c-1.4-15.9-2.2-25.8-1.1-37.9c0.9-9.5,2.1-17.4,2.1-17.4
			c1.6-9.9,2.5-11.3,1.5-14.2C63.1,246.8,46.9,241.5,41.5,246.8z"/>
		<g>
			<g>
				<path class="st2" d="M38.6,252.4c-4.9,22.4-6.1,45.5-2.9,68.2c3.3,23.2,11.7,44.8,23.4,65c6.7,11.6,14.2,22.6,21.7,33.6
					c0.6,0.8,1.7-0.2,1.2-1c-13.2-19.1-26.2-38.5-34.8-60.1C38.7,336.8,35,313.8,35.5,291c0.3-12.8,1.8-25.6,4.6-38.1
					C40.2,251.9,38.8,251.4,38.6,252.4L38.6,252.4z"/>
			</g>
		</g>
		<g>
			<g>
				<path class="st2" d="M62.9,277.3c-2.6,20.4-1.9,41,1.7,61.2c0.2,1,1.7,0.7,1.5-0.3c-3.6-20.1-4.2-40.6-1.7-60.8
					C64.6,276.5,63.1,276.4,62.9,277.3L62.9,277.3z"/>
			</g>
		</g>
		<g>
			<g>
				<path class="st2" d="M57.6,330.5c5.7,5.3,9,12.4,11.5,19.6c2.6,7.4,4.6,14.9,7.2,22.3c5.2,15,11.9,29.6,21.9,42
					c0.6,0.8,1.8-0.2,1.2-1C89,400.5,82.3,385.2,77,369.7c-4.6-13.6-7.3-30-18.2-40.2C58,328.8,56.9,329.8,57.6,330.5L57.6,330.5z"
					/>
			</g>
		</g>
		<g>
			<g>
				<path class="st2" d="M80.4,418.6c-0.2-0.1-0.6,0.1-0.7,0.1c-1.4,0.8-6.1,0.8-12.9,4.2c-4.5,2.2-6.7,3.5-8.1,6.1
					c-1,1.8-1.9,5.9,1.1,6.3c1.3,0.2,2.3-0.9,3.2-1.7c2.3-2,4.7-4.1,8-3.9c1,0.1,1.1-1.5,0.1-1.5c-2.7-0.2-4.9,0.9-7,2.5
					c-0.6,0.5-1.2,1-1.8,1.5c-0.4,0.3-0.7,0.6-1,0.9c-0.7,0.6-1.6,0.7-2.1,0.4c-0.7-0.4-0.9-1.9,0-3c0.3-0.5,0.7-1.1,1.3-1.7
					c0,0,0.8-0.9,1.8-1.7c2.2-1.8,5-2.8,7.6-3.7c6.2-2.2,10.5-1.6,10.8-3.3C80.9,419.8,80.8,418.8,80.4,418.6z"/>
			</g>
		</g>
		<g>
			<g>
				<path class="st2" d="M77.2,423.9c-3.8,1.4-6.6,4.8-7.3,8.7c-0.9,4.1-1.1,10.1,1.5,13.6c2,2.7,5.7,3.1,6.3-0.8
					c0.4-2.4-0.3-4.8,0.1-7.3c0.4-3,1.7-5.8,3.9-7.9c0.7-0.7-0.3-1.9-1-1.2c-2.1,2-3.4,4.5-4,7.3c-0.3,1.4-0.5,2.9-0.6,4.3
					c0,1.2,1,7.1-2.1,5.9c-1.7-0.6-2.5-3.7-2.8-5.2c-0.4-2.3-0.3-5.1,0-7.5c0.5-4,3-7.2,6.7-8.6C78.8,424.9,78.1,423.5,77.2,423.9
					L77.2,423.9z"/>
			</g>
		</g>
		<g>
			<g>
				<path class="st2" d="M82.7,426.7c-2.7,2.6-3,7.2-2.6,10.8c0.4,3.8,2.3,7.7,5.6,9.8c2,1.2,4.7,1.5,4.6-1.5
					c-0.2-5-3.5-11.5,1.2-15.5c0.8-0.6-0.2-1.8-1-1.2c-1.7,1.4-2.6,3.4-2.9,5.6c-0.5,3.2,0.7,6.2,0.9,9.4c0.1,1.4,0,3-1.9,1.9
					c-0.7-0.4-1.3-0.9-1.8-1.5c-1.3-1.3-2.1-2.9-2.6-4.6c-1-3.4-1.2-9.2,1.5-12C84.4,427.1,83.3,425.9,82.7,426.7L82.7,426.7z"/>
			</g>
		</g>
		<g>
			<g>
				<path class="st2" d="M90.6,429.3c-0.2,3.8-0.4,7.7,0.9,11.4c0.6,1.8,2.5,6,4.9,6c2.7,0,2.9-4.8,2.8-6.6
					c-0.2-3.8-1.8-8.1,0.6-11.6c0.6-0.8-0.7-1.7-1.3-0.8c-2.8,4.2-0.6,8.9-0.8,13.6c0,1.7-0.6,4.3-2.6,2.8c-1.1-0.8-1.7-2.6-2.2-3.8
					c-1.2-3.4-1-7.1-0.8-10.7C92.2,428.4,90.6,428.3,90.6,429.3L90.6,429.3z"/>
			</g>
		</g>
		<g>
			<g>
				<path class="st2" d="M99,415.1c3.2,0.6,6.5,1.3,9.3,3.2c1.3,0.8,2.9,2.2,3.5,3.6c1.6,4-2.1,2-3.3,1.7c-3.4-0.8-9.5,1.5-10.7,5
					c-0.3,0.9,1.2,1.4,1.5,0.5c0.6-1.9,3.1-2.9,4.9-3.5c1.1-0.4,2.3-0.7,3.4-0.6c1.3,0.1,2.2,1,3.5,1.1c1.8,0.2,2.8-1.2,2.7-2.9
					c-0.1-2.7-2.9-5.2-5-6.5c-2.9-1.9-6.3-2.6-9.7-3.2C98.2,413.4,98.1,414.9,99,415.1L99,415.1z"/>
			</g>
		</g>
		<path class="st7" d="M58.2,261.4c-5.7,1.5-6.3,16.9-6.5,25.5c-0.3,9.6,0.2,22.6,4.2,41c3.6,16.4,8.2,28.5,9.7,32.7
			c6.9,18.1,14.9,32.9,22.2,44.3c2.5,4.2,4.9,8.4,7.4,12.6c-0.2,3.9-0.3,7.9-0.4,12c-0.1,5.4-0.1,10.8,0.1,15.8c1-0.1,2.3-0.4,3-1.5
			c0.9-1.4,0.4-3.2,0.1-4.8c-0.2-1.5-1.5-8.8,1.2-12.2c1.7-2.1,4.9-2.7,7.3-2.3c2.4,0.4,3.8,1.9,5.2,1.1c1.1-0.6,1.6-2.1,1.5-3.3
			c-0.2-3.8-8-6.1-9.3-6.5c-2.5-0.8-3.6-0.7-5.3-1.9c-2.2-1.6-3.2-3.7-3.7-4.6c-7.3-15-9.2-13.6-15.6-31.3
			c-4.8-13.3-3.3-12.8-7.6-23.3c-3-7.4-4.9-10.3-6.6-16.9c-1.9-7.2-2.2-13.1-2.3-18.4c-0.3-21.5,2-48,2.5-54.3
			C63.4,262.9,60.7,260.8,58.2,261.4z"/>
	</g>
	<g id="hand_left">
		<path class="st12" d="M119.9,34.9c-1.6,0.3-2.2,3.3-2.4,4.1c-0.2,1.2-0.5,3.5,0.6,6.5c0,0,0.7,2,4.2,14.6c0.8,2.8,1.7,7,2,12.3
			c-0.9,5.9-2,10.6-2.7,13.7c-2.6,10.3-4.8,14.7-8.6,27.8c-1.4,4.9-1.5,5.7-3.1,11.7c-4.1,15-7.3,24.6-10.6,34.8
			c-2.9,8.9-6.8,21.9-11.2,38.5c-0.1,1.4-0.5,8.7,4.8,14c5.6,5.6,15.2,6.8,23.4,2.2c1-2.2,2.3-5.5,3.3-9.7c1-4.1,1.2-7.2,1.4-9.1
			s1.2-8.7,3.1-22.2c0.6-4.2,1.4-9.2,3.1-19c2.5-15,3.7-22.5,4.6-27.2c2-10.7,3.7-18.2,6.9-32.7c1.7-7.6,3.9-16.9,6.4-27.4
			c2.3-2,5.3-4.9,8.5-8.9c4.5-5.7,6.4-10.2,10.2-18.8c2.4-5.6,4.1-10.4,2.5-14.6c-0.2-0.6-0.8-2.3-1.8-2.4c-1.3-0.1-2.3,2.6-3.5,5
			c-1.3,2.5-3.3,5.8-6.5,9.5c0.6-3.9,1.3-6.9,1.9-9c1.2-4.6,2.4-7.7,2.5-12.5c0.2-5.2-1.1-5.9-1.4-6.1c-1.6-0.7-3.5,1.6-5.1,0.8
			c-1.4-0.8-0.8-3.3-1.9-3.7c-1.1-0.4-2.8,1.7-4,3.8c-2,3.5-2,6.6-2.4,9.6c-0.4,2.9-1.3,7-3.6,11.8c-0.7,0.2-1.7,0.5-2.3,0
			c-0.6-0.6-0.2-1.9,0.1-3.9c0.1-0.5,0-0.2,0.2-5c0.1-1.8,0.2-5.2,0.3-8c0.1-3.9,0.2-5.6-0.9-7.1c-0.2-0.3-1.1-1.5-2.1-1.4
			c-1.1,0.2-1.6,2.1-2,3.6c-1.6,6-2.4,9-2.6,10c-0.8,5.1-1.7,12.9-1.6,15.4c0,0.3,0.1,1.4-0.1,2.8c-0.1,0.7-0.2,1-0.3,1.4
			c-0.7,3.1,0.7,4.7-0.4,6c-0.1,0.1-0.8,0.8-1.4,0.7c-0.7-0.1-1.2-0.9-2.1-3.7c-1.3-3.8-1.2-5-2.4-6.6C122,36.1,121,34.8,119.9,34.9
			z"/>
		<g>
			<g>
				<path class="st2" d="M122.1,58.6c-0.4-3.7-1.6-7.2-2.5-10.8c-0.4-1.7-0.8-3.5-0.9-5.3c0-1,0-2.1,0.1-3.1c0.2-1.6,0-2.8,1.6-3.1
					c1.5-0.3,1.6,0.6,2.1,1.8c0.5,1.1,0.7,2.2,1,3.3c0.4,1.5,0.8,3.1,1.4,4.6c0.7,1.5,1.9,2.6,3.5,1.7c0.8-0.5,0.2-1.9-0.7-1.4
					c-1.7,0.8-2.7-5.1-3-6.1c-0.5-1.6-0.9-3.2-1.8-4.6c-1.3-1.9-3.4-2.6-4.7-0.3c-1.7,2.9-1.2,7.5-0.6,10.7c0.9,4.4,2.6,8.6,3,13.1
					C120.7,59.9,122.2,59.6,122.1,58.6L122.1,58.6z"/>
			</g>
		</g>
		<g>
			<g>
				<path class="st2" d="M128.8,46.9c1.5-5.4,1.2-11,1.6-16.5c0.4-5.9,1.3-11.8,3.2-17.4c0.4-1.2,0.8-2.9,1.6-4
					c1.5-2.1,2.2,1.2,2.3,2.6c0.3,3.2,0.1,6.5,0,9.7c-0.1,2.9-0.5,5.8-0.6,8.8c0,1.6,0.2,3,1.6,4c0.8,0.6,1.6-0.7,0.8-1.3
					c-1.5-1.1-0.8-4.1-0.6-5.6c0.1-1.7,0.2-3.5,0.3-5.2c0.1-3.2,0.2-6.4,0-9.7c-0.1-1.7-0.3-4.7-2-5.7c-1.5-0.8-2.5,0.4-3.2,1.6
					c-2.8,5.3-3.8,11.8-4.6,17.6c-0.8,6.8,0,14-2,20.6C127.1,47.3,128.6,47.8,128.8,46.9L128.8,46.9z"/>
			</g>
		</g>
		<g>
			<g>
				<path class="st2" d="M139,34.1c1.5-0.1,1.9-1.4,2.3-2.7c0.7-2.1,1.3-4.3,1.9-6.5c1.1-4.2,1.6-8.6,3.1-12.6
					c0.3-0.9,0.7-2,1.4-2.8c0.5-0.9,1.3-1.3,2.5-1.2c0.3,0.7,0.5,1.4,0.7,2.1c0.5,2.4,0.2,5.1-0.2,7.5c-0.8,4.9-1.8,9.8-2.8,14.7
					c-0.2,1,1.4,1.1,1.5,0.1c0.5-2.8,6.9-27.8-0.2-26.6c-1.4,0.2-2.7,2.3-3.3,3.4c-1.1,1.9-1.7,4-2.2,6.2c-0.6,2.6-1.1,5.1-1.7,7.6
					c-0.4,1.5-0.8,3.1-1.3,4.6c-0.3,1-0.8,4.3-2,4.5C137.7,32.7,138,34.2,139,34.1L139,34.1z"/>
			</g>
		</g>
		<g>
			<g>
				<path class="st2" d="M153.1,12.1c0-3,3.5-1.6,4.3,0.1c0.7,1.5,0.4,3.2,0.1,4.7c-0.3,2.4-0.7,4.7-1.2,7
					c-0.9,4.5-2.2,8.8-3.8,13.1c-0.3,1,1.1,1.4,1.5,0.5c1.5-4,2.6-8.1,3.6-12.2c0.8-3.5,1.9-7.5,1.7-11.2c-0.1-2.3-1.3-5.1-4-5.4
					c-2-0.2-3.8,1.3-3.7,3.3C151.6,13,153.1,13.1,153.1,12.1L153.1,12.1z"/>
			</g>
		</g>
		<g>
			<g>
				<path class="st2" d="M155.2,37.9c1.5-2.5,2.9-5.1,4.4-7.6c0.8-1.4,1.4-2.8,2.3-4c0.3-0.4,0.6-0.7,0.8-1.1
					c0.9,0.1,1.8,0.3,2.8,0.4c0.3,0.4,0,1.8-0.1,2.3c-0.6,5.1-2,10-3.8,14.8c-3.7,9.5-9.7,18.1-17.3,25c-0.8,0.7,0.3,1.8,1,1.2
					c9.5-8.5,16.4-19.7,19.8-32c0.8-3,1.6-6.1,1.8-9.2c0.2-1.8,0-4.2-2.1-4.7s-3.7,1.6-4.7,3.1c-2.3,3.5-4.2,7.4-6.3,11
					C153.4,37.9,154.7,38.8,155.2,37.9L155.2,37.9z"/>
			</g>
		</g>
		<g>
			<g>
				<path class="st2" d="M120.5,57.3c1.3,4.5,2.5,9.2,2.7,14c0.1,4.7-0.9,9.3-2.2,13.8c-2.6,9.2-5.5,18.3-8.2,27.4
					c-5.5,18.3-10.9,36.5-16.4,54.8c-3.1,10.5-6.3,21-9.4,31.5c-0.3,0.9,1.2,1.4,1.5,0.5c11.3-37.7,22.9-75.4,33.9-113.2
					c1.3-4.5,2.4-9,2.4-13.7c0-5.3-1.4-10.3-2.8-15.4C121.7,56.1,120.2,56.4,120.5,57.3L120.5,57.3z"/>
			</g>
		</g>
		<g>
			<g>
				<path class="st2" d="M144.2,67.4c-9.4,37.1-16.5,74.6-21.9,112.4c-1.6,11-3.2,22-5.6,32.8c-0.2,1,1.2,1.5,1.5,0.5
					c4.1-18.5,6.1-37.4,9.1-56c3-19.2,6.7-38.3,10.8-57.2c2.4-10.7,4.9-21.4,7.5-32C145.9,66.9,144.4,66.4,144.2,67.4L144.2,67.4z"
					/>
			</g>
		</g>
		<path class="st13" d="M156.6,10.8c-2.1,0.1-3.2,9.1-4,13.6c-2.3,13.9-6.1,16.2-13.1,35.8c-2.6,7.2-6,18-8.9,31.8
			c-9.4,37-18.7,74-28.1,111c4.9,4,9.7,8.1,14.5,12c0.9-6,2.1-14.7,3.7-25.3c3-19.1,6.8-43.7,13.2-73.9c2.5-12,6.1-28.2,11-47.3
			c2-1.9,4.8-4.8,7.7-8.6c3.9-5,9-11.8,11.5-21.8c0.8-3.1,1.7-7.7,1.4-13.6c-0.7-0.2-1.7-0.3-2.7,0.1c-1.7,0.7-2.3,2.7-2.9,4
			c-2,5-5.7,8.8-6.3,8.6c-0.4-0.2,0.2-1.8,1.6-7c2.8-10.6,1.4-7.7,2.6-11.3c0.7-2.1,1.4-3.9,0.7-5.9
			C158.3,12.2,157.5,10.8,156.6,10.8z"/>
		<path class="st14" d="M160.3,45.6c-2.2,2.1-5.3,5.2-8.7,9.1c-4,4.4-8.2,9.2-11.5,14.9c-4.4,7.7-5.7,14.6-6.4,18.7
			c-6.9,37.9-15.7,79.4-18.3,91c-1.4,6.3-3.7,15.9-6.9,27.5c3,2.7,6.1,5.4,9.1,8c2.8-22.5,6.4-46.2,11-70.9
			c5-26.6,10.6-51.6,16.6-75.1c2.4-2.4,5-5.4,7.6-9.1C156.4,54.6,158.7,49.6,160.3,45.6z"/>
	</g>
	<g id="head">
		<path class="st15" d="M-9.4,186"/>
		<path class="st15" d="M78.8,94.4"/>
		<path class="st12" d="M40.4,133.3c-3.6,2.8-8.1,7.1-11.9,13.3c-6.5,10.6-7.2,20.5-7.3,22.6c-0.1,1.4-0.1,2.6-0.1,3.4
			c-0.6-0.1-1.9-0.2-3.1,0.6c-1.7,1.2-1.7,3.6-1.7,4.8c0,2.8,1.4,4.7,2,5.4c0.8,1,2,2.7,4.4,3.3c1.9,0.5,3.5-0.2,4.2-0.5
			c1.1,1.7,2.6,4,4.7,6.5c3.2,4.1,6.3,7.8,11.3,10.7c1.9,1.1,5,2.6,9.3,3.4c1.1,1.1,2.5,2.8,3.6,5.3c0.9,1.9,1.3,3.6,1.5,4.9
			c1.4,0.4,4.1,0.9,7.1,0.3c5.9-1.3,9-5.7,9.7-6.8c-1.5-2.7-3.1-6-4.2-10c-0.5-1.8-0.9-3.6-1.2-5.2c1.2-2,2.7-4.7,3.6-8.2
			c1.7-6,1.1-11.2,0.6-14.1c0.7,0,2.2-0.2,3.5-1.1c1.9-1.3,2.5-3.3,2.9-4.5c0.1-0.3,1.4-5-1.4-8.9c-0.6-0.9-1.7-2.5-3.3-2.3
			c-1.1,0.1-1.9,1.1-2.1,1.6c-5.3-4.3-10-8-14-11.1c-6.4-4.9-11.4-8.5-14.3-10.6C42.7,134.9,41.4,134,40.4,133.3z"/>
		<path class="st2" d="M42.1,189.4c-0.3,1.3,2.5,2.8,3.8,3.5c2.6,1.3,5.2,1,6.1,0.9c1.1-0.1,4.6-0.5,7.3-3.4
			c0.6-0.7,2.5-2.6,2.7-5.4c0.2-2.1-0.5-4.7-1.7-5c-0.9-0.1-1.4,1-2.9,2.6c-2.6,2.7-5.6,3.8-8.2,4.7
			C44.8,188.7,42.4,188.3,42.1,189.4z"/>
		<g>
			<g>
				<path class="st2" d="M23.9,180.9c3.3,7.2,7.7,14,13.7,19.1c5.3,4.6,12.7,8.7,19.9,6.5c6.7-2,11.2-8.4,13.8-14.5
					c3-7.2,3.6-15.1,1.9-22.7c-0.2-0.9-1.7-0.6-1.5,0.3c1.6,6.9,1.1,14.1-1.4,20.8c-2.4,6.3-6.9,13.3-13.8,14.9
					c-7.3,1.8-14.6-3.1-19.6-7.9s-8.7-10.8-11.6-17.2C24.8,179.3,23.5,180,23.9,180.9L23.9,180.9z"/>
			</g>
		</g>
		<g>
			<g>
				<path class="st2" d="M51.2,207.1c2.7,2.8,4.5,6.1,5.2,10c0.2,1,1.7,0.7,1.5-0.3c-0.8-4.1-2.7-7.7-5.6-10.7
					C51.7,205.3,50.6,206.3,51.2,207.1L51.2,207.1z"/>
			</g>
		</g>
		<g>
			<g>
				<path class="st2" d="M57.3,217.5c6.8,2.3,14.4-1,17.5-7.4c0.5-0.9-1-1.4-1.5-0.5c-2.7,5.7-9.6,8.5-15.5,6.4
					C56.8,215.8,56.4,217.2,57.3,217.5L57.3,217.5z"/>
			</g>
		</g>
		<g>
			<g>
				<path class="st2" d="M68.2,196.7c1,4.6,2.5,8.9,4.9,13c0.5,0.8,1.9,0.2,1.4-0.7c-2.2-4-3.8-8.2-4.7-12.6
					C69.5,195.4,68,195.7,68.2,196.7L68.2,196.7z"/>
			</g>
		</g>
		<g>
			<g>
				<path class="st2" d="M26.4,185.4c-0.5,0.8-2.2,0.9-3,0.6c-0.7-0.2-1.3-0.5-1.8-0.9c-1.2-0.8-2.2-1.8-3-2.9
					c-1.5-2.2-3.3-8.8,1.4-8.5c1,0.1,1.1-1.5,0.1-1.5c-5.8-0.4-5.2,7.1-3.1,10.5c1.7,2.7,8,7.9,10.7,3.5
					C28.1,185.4,26.9,184.6,26.4,185.4L26.4,185.4z"/>
			</g>
		</g>
		<g>
			<g>
				<path class="st2" d="M73.3,157.9c0.2-2.1,3.6,1.2,4,1.9c0.9,1.5,1.5,3.2,1.6,5c0.3,3.5-1.8,7.3-5.7,7.1c-1-0.1-1.1,1.5-0.1,1.5
					c6.4,0.4,8.4-6.6,6.8-11.7c-0.7-2.2-2.2-4.9-4.6-5.7c-1.6-0.5-3.3,0.1-3.5,1.8C71.7,158.8,73.2,158.8,73.3,157.9L73.3,157.9z"/>
			</g>
		</g>
		<g>
			<g>
				<path class="st2" d="M26.2,156.1c1-3.5,3.5-6.1,7-7.3c0.9-0.3,0.2-1.7-0.7-1.4c-3.8,1.3-6.6,4.4-7.7,8.2
					C24.4,156.6,25.9,157.1,26.2,156.1L26.2,156.1z"/>
			</g>
		</g>
		<g>
			<g>
				<path class="st2" d="M48,145c3.8-1.8,8.1-0.5,10.7,3c0.6,0.8,1.6-0.2,1.1-1c-2.9-4.1-8.1-5.4-12.4-3.4
					C46.5,144,47.1,145.4,48,145z"/>
			</g>
		</g>
		<g>
			<g>
				<path class="st2" d="M38.1,152.2c2,5.1,3.3,10.6,3.8,16.1c0.1,1.7-0.2,4.2,0.9,5.7c1.2,1.6,3.6,2.8,5.3,3.9
					c0.8,0.6,1.7-0.7,0.8-1.3c-1.1-0.8-2.2-1.5-3.3-2.3c-1.7-1.2-1.9-1.6-2-3.8c-0.1-2-0.3-4-0.5-5.9c-0.7-4.5-1.9-8.9-3.6-13.1
					C39.1,150.5,37.8,151.2,38.1,152.2L38.1,152.2z"/>
			</g>
		</g>
		<g>
			<g>
				<path class="st2" d="M34.3,166.3c-1-1.1-1.6-2.3-1.8-3.7c-0.1-0.3-0.1-1.6,0.1-1.7c0.2,0,0.7,1.7,0.8,1.9c0.2,0.6,0.4,1.3,0.5,2
					c0,0.2,0.3,1.9,0.1,0.9c-0.3-1.4-0.5-2.9-0.8-4.4c-0.5,0.1-1,0.3-1.4,0.5c0.6,1.5,1,3,1.3,4.6c0.5-0.1,1-0.2,1.5-0.3
					c0-0.2-0.1-0.4-0.1-0.6c-0.2-1-1.7-0.7-1.5,0.3c0,0.2,0.1,0.4,0.1,0.6c0.2,1,1.7,0.7,1.5-0.3c-0.3-1.7-0.8-3.4-1.5-5
					c-0.3-0.8-1.6-0.3-1.4,0.5c0.3,1.6,0.4,3.4,0.9,5c0.2,0.7,0.7,1.4,1.6,1.3c2.6,0,0.9-4.8,0.4-5.9c-0.3-0.9-0.8-2.3-1.8-2.7
					c-0.8-0.3-1.6,0.3-1.9,1.1c-0.8,2.4,0.5,5.3,2,7C33.8,168,35,167,34.3,166.3L34.3,166.3z"/>
			</g>
		</g>
		<g>
			<g>
				<path class="st2" d="M57,159.1c-1-1.1-1.6-2.3-1.8-3.7c-0.1-0.3-0.1-1.6,0.1-1.7c0.2,0,0.7,1.7,0.8,1.9c0.2,0.6,0.4,1.3,0.5,2
					c0,0.2,0.3,1.9,0.1,0.9c-0.3-1.4-0.5-2.9-0.8-4.4c-0.5,0.1-1,0.3-1.4,0.5c0.6,1.5,1,3,1.3,4.6c0.5-0.1,1-0.2,1.5-0.3
					c0-0.2-0.1-0.4-0.1-0.6c-0.2-1-1.7-0.7-1.5,0.3c0,0.2,0.1,0.4,0.1,0.6c0.2,1,1.7,0.7,1.5-0.3c-0.3-1.7-0.8-3.4-1.5-5
					c-0.3-0.8-1.6-0.3-1.4,0.5c0.3,1.6,0.4,3.4,0.9,5c0.2,0.7,0.7,1.4,1.6,1.3c2.6,0,0.9-4.8,0.4-5.9c-0.3-0.9-0.8-2.3-1.8-2.7
					c-0.8-0.3-1.6,0.3-1.9,1.1c-0.8,2.4,0.5,5.3,2,7C56.5,160.8,57.6,159.8,57,159.1L57,159.1z"/>
			</g>
		</g>
		<g>
			<g>
				<path class="st2" d="M35.6,189.5c0.6-0.1,0.4-1-0.2-0.9C34.8,188.7,35,189.6,35.6,189.5L35.6,189.5z"/>
			</g>
		</g>
		<g>
			<g>
				<path class="st2" d="M52.9,163C53,163,53,163,52.9,163c0.3,0,0.5-0.3,0.4-0.6s-0.3-0.5-0.5-0.5c-0.1,0-0.1,0-0.1,0
					c-0.2,0-0.4,0.3-0.3,0.6S52.7,163.1,52.9,163L52.9,163z"/>
			</g>
		</g>
		<g>
			<g>
				<path class="st2" d="M64.8,159.7c1-0.2,0.7-1.7-0.3-1.5S63.8,159.9,64.8,159.7L64.8,159.7z"/>
			</g>
		</g>
		<g>
			<g>
				<path class="st2" d="M59.2,166.5c0.1,0,0.1,0,0.2,0c0.4-0.1,0.7-0.5,0.6-0.9c-0.1-0.4-0.5-0.7-0.9-0.6c-0.1,0-0.1,0-0.2,0
					c-0.4,0.1-0.7,0.5-0.6,0.9C58.5,166.3,58.8,166.6,59.2,166.5L59.2,166.5z"/>
			</g>
		</g>
		<g>
			<g>
				<path class="st2" d="M43.6,190.3c-1-1-2.7-2.4-2.4-4c0.3-1.8,2.4-2,3.8-2.1c1.7-0.1,3.1,0,4.6-0.9c1.2-0.7,2.2-1.7,3.3-2.6
					c2.5-2.2,5.9-3,7.5,0.6c4.6,9.8-13,16.3-17.6,7.8c-0.5-0.8-1.9-0.2-1.4,0.7c5.7,10.4,26.3,2.1,20.1-9.5c-1.1-1.9-3-3.4-5.2-3.2
					c-3.7,0.4-5.3,4.4-8.7,5.4c-2.5,0.7-6-0.6-7.6,2.2c-1.4,2.5,0.6,5,2.3,6.6C43.1,192,44.3,191,43.6,190.3L43.6,190.3z"/>
			</g>
		</g>
		<g>
			<g>
				<path class="st2" d="M40.1,188c1.7,2.8,7,0.8,9.4,0c4.5-1.6,8.3-4.5,11.3-8.1c0.6-0.8-0.6-1.6-1.3-0.8c-2.2,2.7-4.9,4.9-8,6.5
					c-1.4,0.7-8.7,3.9-10,1.9C41,186.5,39.6,187.2,40.1,188L40.1,188z"/>
			</g>
		</g>
		<g>
			<g>
				<path class="st2" d="M53.4,208.3c6.2,0.3,13.3-4.9,15.6-10.4c0.4-0.9-1.1-1.4-1.5-0.5c-2.1,4.8-8.7,9.7-14,9.4
					C52.5,206.7,52.4,208.2,53.4,208.3L53.4,208.3z"/>
			</g>
		</g>
		<g>
			<g>
				<path class="st2" d="M54.3,207.5c1.9,0.7,12.9-3.2,15.1-9.5c0.2-0.6,0.8-2.4,0.4-2.5c-0.3-0.2-1.2,1.1-1.6,1.7
					c-0.2,0.2-0.2,0.4-0.2,0.4c-1.3,4.6-8.1,10.5-13.1,8.6C53.9,205.7,53.4,207.2,54.3,207.5z"/>
			</g>
		</g>
		<path class="st16" d="M64.4,151.3c0.7,1.7,1.7,4.5,2.7,7.9c2.5,9.1,6.8,24.3-0.5,36.4c-1.6,2.6-5.1,7.4-12.5,11.1
			c2.5-0.6,5.5-1.5,8.6-3c1.6-0.7,3-1.5,4.2-2.3c1.1,4.4,2.1,8.9,3.2,13.3c1.5-1.4,2.9-2.8,4.4-4.3c-3.3-4.7-4.1-8.6-4.3-11.2
			c-0.2-3.6,0.5-6.7,1.2-9.8c0.7-2.7,1.5-5,2.1-6.6c0.3,1,0.8,2.1,1.7,3c4,4,13.6,2.5,18.9-2.6c4.9-4.7,6.1-12.6,3.2-19.8
			c1.1,0.6,2.3,1.4,3.5,2.3c0.9,0.8,3.4,3,7.9,11.6c1.4,2.7,2.1,4.1,2.6,5.5c0.7,1.9,2,5.7,1.8,10.2c-0.3,7.8-4.9,13.1-6.2,14.6
			c-1,1.1-4,4.3-9,6.6c-2.4,1-9.6,4.3-17.5,1.6c-3-1-4.6-1.9-5.7-3.1c-1.2-1.4-1.5-2.8-1.9-3.9c-1.8-6.8-2.7-10.2-2.7-12.7
			c0-7.1,2.9-8.4,3.1-16.5c0-2.9-0.3-5.3-0.5-6.8c0.7,0,1.7-0.1,2.8-0.7c2.4-1.1,3.2-3.5,3.5-4.3c1.2-3.2,1-8.5-2.2-10.3
			c-0.5-0.3-2.1-1-4.8-0.3C69.7,155.3,67,153.3,64.4,151.3z"/>
		<path class="st7" d="M43.8,172.3c2.7,0.2,5.5,0.5,8.2,0.8c-0.5,0.7-1.1,1.4-1.7,2.2c-0.5,0.7-1.1,1.3-1.6,1.9
			c-0.9-0.4-2.3-1.3-3.5-2.7C44.5,173.6,44.1,172.9,43.8,172.3z"/>
		<path class="st17" d="M40.6,134.4c-2.9,2.9-6.1,6.6-9,11.1c-6.9,10.4-9.6,20.5-10.9,27.4c-0.4-0.1-3.2-0.3-4.6,1.4
			c-0.1,0.2-0.4,0.6-0.6,1.3c-0.9,3.2,1.8,6.5,2.6,7.6c1.1,1.3,2.5,3.1,4.9,3.6c1.8,0.4,2.5-0.3,3.9,0.3c1.7,0.7,2.2,2.2,3.4,4.4
			c0,0,1.7,3,4.9,6.5c2.8,3,5.7,4.5,7.7,5.5c4.2,2.1,8.1,2.8,10.8,3.1c1.4,2,3.3,4.9,5.2,8.6c3.4,6.4,15.2,28.6,7.6,39.1
			c-4.2,5.8-13.5,6.7-20.1,5c-10.7-2.8-16.1-13.6-27.1-35.2c0,0-12.8-25.2-9.4-39c0.7-2.9,1.4-5,1.4-5c1.5-4.4,2.8-5.8,3.8-12.4
			c1.7-11.4-1.1-14.8,1.7-23.8c1.1-3.5,3.2-10.6,9.7-15.1c5.6-3.8,11.5-3.6,14.1-3.3c1.7-1.7,4.9-4.3,9.4-5.1
			c10.6-2.1,19.6,7.4,21.8,9.7c6.4,6.7,4.3,9.6,10.7,19.5c6.4,9.7,10.9,10.8,16,16.3c2.1,2.3,3.4,4.2,4.7,6.2
			c15.4,23.2,15,44.6,15,44.6c-0.2,7.6-0.3,14.1-4.8,19.2c-6.1,6.9-17.3,7.4-25,3.9c0,0-12-5.4-18.9-34.8c-0.7-3.2-0.6-5.6-0.5-6.5
			c0.4-3.5,1.6-5.9,2-6.7c1.5-3.1,2.9-8.4,2.7-18.6c0.8-0.2,2.1-0.7,3.2-1.7c0,0,0.4-0.4,0.7-0.8c1-1.4,2.5-4.6,1.6-8.1
			c-0.2-0.8-1.2-4.7-4.2-5.5c-1.2-0.3-2.4,0.1-3,0.3C61.8,149.6,51.2,142,40.6,134.4z"/>
	</g>
</g>
</svg>
