<svg xmlns="http://www.w3.org/2000/svg" width="1028" height="883" viewBox="0 0 1028 883">
  <defs>
    <style>
      .cls-1 {
        fill: #fff;
        fill-rule: evenodd;
      }
    </style>
  </defs>
  <path id="N" class="cls-1" d="M18.172,575.859H49.163a14.246,14.246,0,0,0,13.171-8.522L118.9,439.5H393.946l57.335,127.839a14.248,14.248,0,0,0,13.172,8.522h30.991c11.622,0,17.821-10.072,13.172-20.144L274.628,34.289c-2.324-4.649-6.2-8.523-13.171-8.523h-7.748c-6.973,0-10.847,3.874-13.172,8.523L5,555.715C0.351,565.787,6.55,575.859,18.172,575.859Zm122.417-184.4,113.12-254.128h6.2c37.965,84.451,75.155,169.677,113.12,254.128H140.589ZM584.64,833.773c0,7.748,6.974,14.721,14.722,14.721h27.117A14.711,14.711,0,0,0,641.2,833.773V412.294h0.775L997.606,856.242h13.944c7.75,0,14.72-6.2,14.72-13.946V320.87c0-7.748-6.97-14.721-14.72-14.721H984.434a14.711,14.711,0,0,0-14.721,14.721V733.827h-1.55L618.731,298.4H599.362c-7.748,0-14.722,6.2-14.722,13.946V833.773Z"/>
</svg>
